/home/minht/3dpredictsim_tutorial/predsim_tutorial/Results/Case_16/GRF.mot
version=1
nRows=22
nColumns=19
inDegrees=yes
endheader 
time	r_ground_force_vx	r_ground_force_vy	r_ground_force_vz	r_ground_force_px	r_ground_force_py	r_ground_force_pz	l_ground_force_vx	l_ground_force_vy	l_ground_force_vz	l_ground_force_px	l_ground_force_py	l_ground_force_pz	r_ground_torque_x	r_ground_torque_y	r_ground_torque_z	l_ground_torque_x	l_ground_torque_y	l_ground_torque_z	
          0.00000000	        -40.76683667	         38.47222241	        -10.71808898	         -5.22561373	          0.00000000	          1.11006259	         91.52530976	        863.22621998	        -20.99659712	          0.00668200	          0.00000000	         -0.00234223	          0.00000000	        105.40298862	          0.00000000	          0.00000000	          3.82349274	          0.00000000	
          0.01668656	        -58.24042479	         98.84020989	        -27.21754629	         -1.89735594	          0.00000000	          0.41983983	         90.96091253	        829.00099516	        -18.04037322	          0.01860576	          0.00000000	         -0.00608557	          0.00000000	         80.76524942	          0.00000000	          0.00000000	          7.43833455	          0.00000000	
          0.03337311	        -19.38529422	        208.51720443	        -14.03122516	         -0.82120136	          0.00000000	          0.18964265	         89.68347409	        781.20926006	        -14.66788635	          0.04253119	          0.00000000	         -0.01327895	          0.00000000	         19.96760369	          0.00000000	          0.00000000	          3.77112151	          0.00000000	
          0.05005967	        -22.07788827	        321.73852380	         -2.15496104	         -0.48141413	          0.00000000	          0.11532765	         85.22199969	        728.01885138	        -11.73762039	          0.07122581	          0.00000000	         -0.02183473	          0.00000000	          7.75106122	          0.00000000	          0.00000000	          2.49470718	          0.00000000	
          0.06674622	        -37.20367712	        432.80309364	          3.45769121	         -0.31613037	          0.00000000	          0.07884148	         79.49284912	        662.82956814	         -9.11972800	          0.10744924	          0.00000000	         -0.03258512	          0.00000000	          5.31753407	          0.00000000	          0.00000000	          2.98628973	          0.00000000	
          0.08343278	        -58.03392519	        551.82209405	          9.22047175	         -0.21184748	          0.00000000	          0.05573401	         71.27409898	        585.52412117	         -7.18480102	          0.16180362	          0.00000000	         -0.04840062	          0.00000000	          4.02032642	          0.00000000	          0.00000000	          3.80670557	          0.00000000	
          0.10011933	        -74.18384200	        644.80496181	         11.39220523	         -0.14923122	          0.00000000	          0.04215421	         60.17172594	        499.79198508	         -5.39999152	          0.22995530	          0.00000000	         -0.06716118	          0.00000000	          3.60367796	          0.00000000	          0.00000000	          4.58254609	          0.00000000	
          0.11680589	        -84.24786482	        710.56204329	         13.80585955	         -0.10587856	          0.00000000	          0.03292782	         46.33629022	        409.16650551	         -2.83143176	          0.32107154	          0.00000000	         -0.08972070	          0.00000000	          3.24099893	          0.00000000	          0.00000000	          4.61058081	          0.00000000	
          0.13349245	        -92.37873272	        767.02385921	         12.65171727	         -0.07296484	          0.00000000	          0.02569318	         32.34832724	        323.14704297	         -0.30732908	          0.45647133	          0.00000000	         -0.11887670	          0.00000000	          3.25333988	          0.00000000	          0.00000000	          4.90192309	          0.00000000	
          0.15017900	        -94.48204793	        802.31728656	         12.14770738	         -0.05082331	          0.00000000	          0.02050397	         20.77183539	        251.90766882	          2.23263323	          0.63196620	          0.00000000	         -0.15604681	          0.00000000	          3.06548339	          0.00000000	          0.00000000	          5.51579258	          0.00000000	
          0.16686556	        -91.28292407	        820.30655960	         12.21130301	         -0.03801569	          0.00000000	          0.01690604	         13.95207763	        202.13188260	          3.72494529	          0.82444949	          0.00000000	         -0.19623289	          0.00000000	          2.65453698	          0.00000000	          0.00000000	          6.38455123	          0.00000000	
          0.18355211	        -85.66138020	        828.34533142	         11.84856535	         -0.03083333	          0.00000000	          0.01399310	          8.31864957	        167.67713048	          5.72521253	          1.02230600	          0.00000000	         -0.23698440	          0.00000000	          2.29908501	          0.00000000	          0.00000000	          8.20323890	          0.00000000	
          0.20023867	        -78.69421285	        834.81198637	         11.10125322	         -0.02421874	          0.00000000	          0.01115338	          2.08624746	        134.13147191	          8.06138963	          1.30760797	          0.00000000	         -0.29731068	          0.00000000	          1.94972854	          0.00000000	          0.00000000	         11.29860060	          0.00000000	
          0.21692523	        -71.24739953	        843.80788367	         10.95780220	         -0.01760511	          0.00000000	          0.00824751	         -4.75502028	         99.84190957	          9.06266466	          1.79894011	          0.00000000	         -0.40298403	          0.00000000	          1.35803075	          0.00000000	          0.00000000	         14.06991397	          0.00000000	
          0.23361178	        -63.55551961	        855.96398673	         12.33846013	         -0.01122133	          0.00000000	          0.00538869	        -11.66971541	         65.57663123	          9.10750497	          2.81180597	          0.00000000	         -0.62204064	          0.00000000	          0.64627347	          0.00000000	          0.00000000	         17.33337283	          0.00000000	
          0.25029834	        -56.32241709	        870.27710764	         16.07030835	         -0.00508874	          0.00000000	          0.00250662	        -16.78583235	         30.88495361	          3.46668098	          6.13833911	          0.00000000	         -1.34316957	          0.00000000	         -0.67528695	          0.00000000	          0.00000000	         -3.38393397	          0.00000000	
          0.26698489	        -49.18845604	        882.53846707	         18.19655460	         -0.00119934	          0.00000000	          0.00061166	          0.00000000	          0.00000000	          0.00000000	          0.00000000	          0.00000000	          0.00000000	          0.00000000	         -0.50573912	          0.00000000	          0.00000000	          0.00000000	          0.00000000	
          0.28367145	        -42.16760020	        887.37838795	         19.26011518	         -0.00030742	          0.00000000	          0.00016212	          0.00000000	          0.00000000	          0.00000000	          0.00000000	          0.00000000	          0.00000000	          0.00000000	         -0.18114319	          0.00000000	          0.00000000	          0.00000000	          0.00000000	
          0.30035800	        -35.72708682	        886.99682444	         19.49040534	         -0.00010877	          0.00000000	          0.00006893	          0.00000000	          0.00000000	          0.00000000	          0.00000000	          0.00000000	          0.00000000	          0.00000000	         -0.08724838	          0.00000000	          0.00000000	          0.00000000	          0.00000000	
          0.31704456	        -30.25619644	        885.79457858	         19.74539772	         -0.00003693	          0.00000000	          0.00002923	          0.00000000	          0.00000000	          0.00000000	          0.00000000	          0.00000000	          0.00000000	          0.00000000	         -0.04022633	          0.00000000	          0.00000000	          0.00000000	          0.00000000	
          0.33373112	        -25.67582905	        885.77209201	         20.07743070	         -0.00001480	          0.00000000	          0.00001633	          0.00000000	          0.00000000	          0.00000000	          0.00000000	          0.00000000	          0.00000000	          0.00000000	         -0.02373652	          0.00000000	          0.00000000	          0.00000000	          0.00000000	
          0.35041767	        -22.11823570	        887.28774318	         20.52103381	         -0.00000632	          0.00000000	          0.00001286	          0.00000000	          0.00000000	          0.00000000	          0.00000000	          0.00000000	          0.00000000	          0.00000000	         -0.01933887	          0.00000000	          0.00000000	          0.00000000	          0.00000000	
